<svg width="81" height="81" viewBox="0 0 81 81" fill="none" xmlns="http://www.w3.org/2000/svg">
<g clip-path="url(#clip0_153_4)">
<path d="M28.1997 0.403418C27.4815 0.616992 26.4848 0.99668 25.9849 1.24822C25.485 1.49977 24.6164 2.05031 24.0548 2.4743C23.4948 2.8967 22.6563 3.70512 22.1928 4.27148C21.7292 4.83785 21.1091 5.76176 20.8148 6.32812C20.5205 6.89449 20.1124 7.89117 19.9099 8.54297C19.6045 9.51908 19.5397 10.0791 19.5381 11.707C19.5381 13.1229 19.6188 13.9772 19.8213 14.7129C19.9779 15.2793 20.4636 16.4879 20.9002 17.4023C21.3369 18.3168 22.0978 19.6694 22.5898 20.4082C23.0834 21.1486 23.9425 22.3225 24.5025 23.0186C25.061 23.7146 26.0782 24.9075 26.7601 25.6685C27.4435 26.4294 27.9672 27.0527 27.9229 27.0527C27.8786 27.0527 26.6873 26.7696 25.273 26.4231C23.8586 26.0782 21.7767 25.6368 20.6455 25.4454C19.0224 25.1685 17.9371 25.0942 15.5039 25.0894C13.1483 25.0847 12.1389 25.1464 11.2324 25.352C10.5791 25.5008 9.37039 25.9548 8.54298 26.363C7.28052 26.9863 6.81066 27.3343 5.60199 28.5414C4.39173 29.7533 4.05002 30.2152 3.42828 31.4824C3.0217 32.3082 2.56765 33.4489 2.41894 34.0137C2.2291 34.7287 2.14841 35.6432 2.15158 37.0195C2.15474 38.8325 2.19904 39.1221 2.67048 40.5C2.95525 41.3274 3.42353 42.3953 3.71304 42.873C4.00256 43.3508 4.54994 44.1149 4.92804 44.569C5.30615 45.0214 6.07818 45.7603 6.64455 46.2096C7.21091 46.6573 8.31359 47.3312 9.0967 47.7046C9.8798 48.0795 10.6993 48.5763 10.916 48.8088C11.3036 49.2217 11.31 49.2755 11.2657 51.3907C11.2403 52.5788 11.302 54.0501 11.4017 54.6592C11.5014 55.2683 11.8036 56.3361 12.0709 57.0322C12.3399 57.7283 12.892 58.7962 13.3002 59.4053C13.7067 60.0144 14.5041 60.9398 15.072 61.4619C15.64 61.984 16.5196 62.6595 17.0274 62.9648C17.5368 63.2702 18.505 63.7147 19.1806 63.9536C19.8561 64.1925 21.0315 64.4678 21.7925 64.5643C22.8034 64.694 23.5391 64.694 24.5215 64.5674C25.2619 64.4709 26.2934 64.2463 26.8154 64.0659C27.3375 63.8856 28.2567 63.4758 28.8578 63.1547C29.4606 62.832 30.4146 62.1422 30.9794 61.6201C31.5426 61.098 32.3067 60.2786 32.6753 59.8008C33.0439 59.323 33.6815 58.3611 34.0944 57.665C34.5057 56.9689 35.1638 55.6875 35.5562 54.8174C35.9469 53.9473 36.6683 52.033 37.1588 50.5633L38.0479 47.8913C38.2013 78.4102 38.2251 79.5414 38.4829 79.9385C38.6348 80.1742 38.9908 80.5096 39.2739 80.6836C39.5872 80.875 40.065 80.9984 40.5 80.9984C40.9351 80.9984 41.4128 80.875 41.7261 80.6836C42.0093 80.5096 42.3652 80.1742 42.5171 79.9385C42.775 79.5414 42.7987 78.4102 42.8731 63.6831L42.9522 47.8564C44.1482 51.5347 44.8142 53.3508 45.205 54.2637C45.5957 55.1765 46.2365 56.4943 46.6304 57.1904C47.0227 57.8865 47.7078 58.9481 48.1539 59.5508C48.6 60.152 49.4306 61.0775 50.0017 61.6075C50.5728 62.1359 51.6059 62.8668 52.2956 63.2306C52.987 63.5945 54.0849 64.0343 54.7383 64.2099C55.3901 64.3855 56.3884 64.5738 56.9531 64.6307C57.5179 64.6861 58.5858 64.6481 59.3262 64.5453C60.0666 64.444 61.2404 64.1498 61.9365 63.8919C62.6326 63.6356 63.6293 63.161 64.1498 62.8383C64.6719 62.5171 65.5167 61.8606 66.0277 61.3828C66.5387 60.905 67.2917 60.0144 67.6999 59.4053C68.1065 58.7962 68.6618 57.7283 68.9307 57.0322C69.1996 56.3361 69.5002 55.2335 69.5983 54.5801C69.6948 53.9283 69.7549 52.457 69.7312 51.3116C69.6901 49.2834 69.698 49.2202 70.084 48.8057C70.3007 48.5699 71.1202 48.0779 71.9033 47.7109C72.6864 47.3439 73.7543 46.7031 74.2764 46.2871C74.7985 45.871 75.4629 45.2714 75.7524 44.9534C76.0419 44.6354 76.6067 43.8776 77.007 43.2686C77.4072 42.6595 77.9277 41.628 78.1634 40.9746C78.3976 40.3228 78.6792 39.2549 78.7868 38.6016C78.9054 37.8912 78.945 36.9072 78.8864 36.1494C78.8326 35.4533 78.6396 34.3506 78.4577 33.6973C78.2773 33.0455 77.8344 31.9412 77.4737 31.2451C76.9817 30.2927 76.4675 29.6251 75.3901 28.5414C74.1846 27.3312 73.7243 26.9879 72.457 26.363C71.6296 25.9548 70.4194 25.5008 69.7676 25.352C68.8611 25.1464 67.8518 25.0847 65.4961 25.0894C63.0629 25.0942 61.9777 25.1685 60.3545 25.4454C59.2234 25.6368 57.1414 26.0782 55.7271 26.4231C54.3127 26.7696 53.1199 27.0527 53.0772 27.0527C53.0345 27.0527 53.6103 26.3946 54.3586 25.5894C55.1069 24.7841 56.2634 23.4141 56.9294 22.5455C57.5954 21.6754 58.5874 20.2152 59.1348 19.3024C59.6821 18.3879 60.3482 17.0701 60.6155 16.374C60.8829 15.6779 61.2072 14.6101 61.3369 14.001C61.4967 13.2432 61.5489 12.3683 61.4967 11.2324C61.4414 10.0016 61.3116 9.24223 60.9968 8.30566C60.7627 7.60957 60.3529 6.64928 60.0856 6.16992C59.8166 5.69215 59.2692 4.88215 58.869 4.37273C58.4671 3.86332 57.7125 3.09762 57.1904 2.67205C56.6684 2.2449 55.7777 1.65322 55.2129 1.3558C54.6481 1.0568 53.5439 0.629648 52.7608 0.403418C51.6328 0.0791016 50.9921 -0.00632811 49.6758 -0.00632811C48.3722 -0.00632811 47.7172 0.0791016 46.6304 0.392344C45.8694 0.612246 44.8728 0.979277 44.4155 1.20709C43.9583 1.43648 43.0613 1.98861 42.4222 2.43316C41.4176 3.134 41.1581 3.24316 40.5 3.24316C39.8419 3.24316 39.5824 3.134 38.5778 2.43316C37.9387 1.98861 37.0417 1.43648 36.5845 1.20709C36.1273 0.979277 35.1306 0.612246 34.3696 0.392344C33.2464 0.0696094 32.6563 -0.00316404 31.2451 0.00474611C29.8846 0.0142383 29.2201 0.10125 28.1997 0.403418Z" fill="#418E5B"/>
</g>
<defs>
<clipPath id="clip0_153_4">
<rect width="81" height="81" fill="white"/>
</clipPath>
</defs>
</svg>
